<?xml version="1.0" standalone="no"?>
<!DOCTYPE svg PUBLIC "-//W3C//DTD SVG 20010904//EN"
 "http://www.w3.org/TR/2001/REC-SVG-20010904/DTD/svg10.dtd">
<svg version="1.0" xmlns="http://www.w3.org/2000/svg"
 width="512.000000pt" height="512.000000pt" viewBox="0 0 512.000000 512.000000"
 preserveAspectRatio="xMidYMid meet">
<metadata>
Created by potrace 1.11, written by Peter Selinger 2001-2013
</metadata>
<g transform="translate(0.000000,512.000000) scale(0.100000,-0.100000)"
fill="#000000" stroke="none">
<path d="M1519 4591 c-258 -81 -392 -321 -391 -701 1 -122 5 -188 17 -260 2
-14 7 -43 10 -65 3 -22 14 -80 24 -130 l17 -90 -114 -38 c-152 -50 -346 -140
-457 -212 -108 -70 -239 -198 -286 -280 -45 -77 -69 -165 -70 -252 -1 -147 53
-265 181 -393 47 -47 118 -108 159 -135 105 -69 286 -156 426 -205 66 -23 129
-46 141 -50 20 -8 21 -10 8 -72 -40 -185 -56 -319 -56 -473 -1 -282 64 -474
203 -599 229 -206 581 -156 973 138 85 64 168 134 234 196 l22 21 48 -44 c248
-232 519 -390 737 -428 81 -14 212 -7 275 16 312 111 434 476 344 1025 -9 52
-22 121 -29 153 -13 56 -13 58 8 67 12 4 76 27 142 50 256 90 449 202 585 339
195 197 234 412 117 636 -41 78 -178 216 -282 284 -107 70 -273 149 -420 201
-66 23 -130 46 -142 50 -21 9 -21 10 -8 68 8 33 19 91 25 128 6 38 13 80 15
94 19 112 22 352 5 455 -60 377 -308 575 -641 515 -198 -36 -440 -171 -673
-374 l-109 -95 -47 45 c-176 167 -427 331 -595 389 -134 47 -296 57 -396 26z
m239 -312 c96 -23 317 -143 397 -216 11 -10 36 -30 55 -45 19 -15 57 -47 83
-70 46 -42 47 -44 30 -63 -36 -40 -191 -232 -247 -307 -62 -82 -55 -79 -181
-93 -60 -7 -133 -16 -160 -21 -25 -5 -120 -22 -160 -29 -16 -2 -39 -7 -51 -9
-19 -4 -22 4 -42 112 -12 65 -25 144 -29 177 -8 73 -8 278 0 320 15 78 19 93
36 130 47 107 138 145 269 114z m1778 -9 c112 -55 159 -253 130 -550 -7 -73
-43 -278 -52 -291 -2 -3 -23 -3 -46 2 -54 11 -151 27 -203 34 -22 3 -49 7 -60
10 -11 2 -49 7 -85 11 -36 4 -72 8 -80 10 -8 1 -20 3 -27 3 -6 1 -29 25 -50
54 -21 28 -45 61 -54 72 -10 11 -55 67 -101 124 -45 58 -93 117 -105 131 l-22
27 57 50 c151 131 248 199 367 258 159 79 249 94 331 55z m-897 -691 l44 -54
-62 -3 c-33 -2 -89 -2 -123 0 l-62 3 49 60 c66 83 76 90 95 67 8 -11 35 -43
59 -73z m328 -453 c83 -127 148 -238 237 -403 l87 -163 -39 -72 c-21 -40 -61
-113 -87 -163 -61 -115 -223 -376 -242 -392 -10 -8 -110 -11 -354 -11 -187 0
-349 2 -359 5 -24 6 -152 207 -255 398 -26 50 -66 123 -87 162 l-40 72 48 88
c25 49 65 122 87 163 47 87 109 192 183 306 l53 82 361 0 360 0 47 -72z
m-1190 12 c-2 -7 -29 -55 -60 -107 l-55 -94 -16 37 c-19 44 -47 138 -43 142 3
3 146 32 166 33 7 1 11 -5 8 -11z m1624 2 c30 -6 67 -13 84 -16 16 -3 31 -7
33 -9 4 -4 -48 -157 -57 -167 -6 -7 -121 181 -121 197 0 7 -2 7 61 -5z m-2077
-205 c20 -58 61 -163 91 -234 30 -70 55 -134 55 -141 0 -7 -24 -70 -54 -139
-29 -69 -70 -173 -91 -231 -21 -58 -40 -107 -42 -109 -5 -7 -228 77 -322 120
-167 78 -322 201 -357 286 -72 170 145 369 561 514 61 22 113 39 116 39 4 0
23 -47 43 -105z m2681 47 c267 -100 442 -218 504 -341 85 -166 -115 -362 -529
-514 -158 -59 -139 -65 -184 60 -22 59 -63 165 -92 234 -30 69 -54 133 -54
141 0 9 15 49 34 89 36 81 123 305 138 357 11 39 11 39 183 -26z m-2280 -906
c31 -54 54 -100 52 -102 -2 -3 -24 0 -48 5 -24 5 -62 12 -83 15 -22 4 -41 8
-43 10 -2 2 5 30 16 62 29 88 41 117 45 113 2 -2 29 -48 61 -103z m1769 10
c14 -44 25 -80 24 -82 -6 -5 -172 -33 -176 -30 -2 2 8 24 22 48 14 23 40 69
57 101 18 32 35 54 40 50 4 -4 19 -44 33 -87z m-1806 -422 c88 -15 111 -19
212 -30 36 -4 72 -8 80 -10 8 -1 20 -3 26 -3 6 -1 38 -36 70 -78 68 -91 204
-261 241 -301 l25 -27 -39 -34 c-265 -231 -481 -351 -634 -351 -216 0 -279
300 -174 824 9 43 10 44 62 34 27 -5 85 -15 131 -24z m1944 -50 c62 -294 55
-570 -20 -690 -39 -63 -84 -89 -158 -91 -154 -4 -355 104 -617 331 l-57 49 33
40 c17 23 42 52 54 66 13 13 61 74 108 135 47 61 96 124 108 139 16 21 32 30
62 33 39 3 91 10 165 20 90 13 275 46 279 50 15 14 28 -11 43 -82z m-952 -18
c0 -9 -112 -141 -120 -141 -8 0 -120 132 -120 141 0 2 54 4 120 4 66 0 120 -2
120 -4z"/>
<path d="M2510 2958 c-204 -24 -355 -206 -346 -416 10 -209 184 -373 396 -374
163 -1 313 102 372 254 32 80 31 203 -2 286 -48 122 -178 231 -295 247 -22 3
-44 7 -50 9 -5 1 -39 -1 -75 -6z"/>
</g>
</svg>
